<svg width="117" height="117" viewBox="0 0 117 117" fill="none" xmlns="http://www.w3.org/2000/svg">
<g clip-path="url(#clip0_2381_5216)">
<path d="M36.5535 77.5437C43.4064 70.6905 47.2587 61.3855 47.2587 51.6947C47.2587 42.0038 43.4031 32.6988 36.5535 25.8457L10.7052 0C3.85561 6.85314 0 16.1581 0 25.849C0 35.5399 3.85561 44.8448 10.7052 51.698L36.5502 77.5437H36.5535Z" fill="#7FC8FF"/>
<path d="M90.6385 79.9355C83.7889 73.0857 74.4808 69.23 64.7936 69.23C55.1063 69.23 45.7983 73.0857 38.9453 79.9355L64.7936 105.785C71.6432 112.634 80.9512 116.49 90.6418 116.49C100.332 116.49 109.637 112.634 116.49 105.785L90.6418 79.9355H90.6385Z" fill="#7FC8FF"/>
<path d="M10.7681 105.724C17.6211 112.574 26.9258 116.43 36.6164 116.43V79.8755H0.0595703C0.062897 89.5664 3.91518 98.8713 10.7681 105.724Z" fill="#7FC8FF"/>
<path d="M100.618 41.718C93.7653 34.8682 84.4606 31.0091 74.7667 31.0125C65.0761 31.0125 55.7714 34.8682 48.9185 41.7213L74.7667 67.5703L100.618 41.718Z" fill="#7FC8FF"/>
</g>
<defs>
<clipPath id="clip0_2381_5216">
<rect width="116.49" height="116.49" fill="white"/>
</clipPath>
</defs>
</svg>
